<svg width="191" height="32" viewBox="0 0 191 32" fill="none" xmlns="http://www.w3.org/2000/svg" class="wsc-svg-logo-filmora-header-white">
<g filter="url(#filmora-header-white-filter0_i)">
<g clip-path="url(#filmora-header-white-clip0)">
<rect width="32" height="32" fill="url(#filmora-header-white-paint0_linear)"/>
<path d="M12.3569 14.471L8.01465 10.124L13.3843 4.75L18.752 10.1218L12.5969 16.2855L12.568 16.2565C12.9118 15.6972 12.8415 14.9554 12.3569 14.471Z" fill="white"/>
<path d="M24.75 16.0419L13.3782 27.4227L8.00854 22.0489L19.3803 10.6685L24.75 16.0419Z" fill="#55E5C5"/>
</g>
</g>
<path d="M53.632 10.8H51.504L49.536 18.8L47.12 10.8H45.072L42.656 18.784L40.688 10.8H38.48L41.536 22H43.6L46.064 13.824L48.528 22H50.576L53.632 10.8ZM57.6287 13.616C55.2287 13.616 53.5487 15.216 53.5487 17.888C53.5487 20.576 55.2287 22.176 57.6287 22.176C60.0448 22.176 61.7248 20.576 61.7248 17.888C61.7248 15.216 60.0448 13.616 57.6287 13.616ZM57.6128 15.456C58.8127 15.456 59.6927 16.24 59.6927 17.888C59.6927 19.44 58.9408 20.336 57.6607 20.336C56.4607 20.336 55.5807 19.552 55.5807 17.888C55.5807 16.352 56.3327 15.456 57.6128 15.456ZM67.5581 13.616C66.1821 13.616 65.5101 14.192 65.0461 14.96V13.76H63.0781V22H65.0621V17.552C65.0621 16.208 65.6861 15.392 66.8701 15.392C67.8461 15.392 68.4061 15.936 68.4061 16.864V22H70.3901V16.688C70.3901 14.72 69.4301 13.616 67.5581 13.616ZM79.931 10.624H77.947V14.848C77.451 14.048 76.443 13.616 75.371 13.616C73.355 13.616 71.675 15.024 71.675 17.872C71.675 20.768 73.355 22.176 75.371 22.176C76.507 22.176 77.531 21.68 77.979 20.736V22H79.931V10.624ZM75.835 20.352C74.683 20.352 73.691 19.536 73.691 17.872C73.691 16.192 74.683 15.376 75.835 15.376C76.907 15.376 77.995 16.176 77.995 17.872C77.995 19.552 76.907 20.352 75.835 20.352ZM88.949 18.48V17.664C88.949 14.944 87.253 13.616 85.253 13.616C83.157 13.616 81.285 15.056 81.285 17.936C81.285 20.8 83.125 22.176 85.205 22.176C86.885 22.176 88.469 21.264 88.885 19.52H87.029C86.741 20.176 86.069 20.464 85.285 20.464C84.101 20.464 83.253 19.824 83.205 18.48H88.949ZM85.237 15.328C86.309 15.328 86.997 15.936 86.997 17.024H83.253C83.429 15.824 84.293 15.328 85.237 15.328ZM94.9704 13.664H94.4264C93.4664 13.664 92.6984 14.08 92.2824 14.976V13.76H90.3144V22H92.2984V17.968C92.2984 16.352 93.0504 15.6 94.4424 15.6H94.9704V13.664ZM99.2981 17.088C98.2901 16.944 97.5701 16.816 97.5701 16.176C97.5701 15.696 97.9541 15.264 98.9301 15.264C99.7781 15.264 100.354 15.584 100.434 16.4H102.37C102.258 14.56 100.834 13.616 98.9141 13.616C97.2021 13.616 95.6341 14.368 95.6341 16.24C95.6341 18.272 97.4741 18.544 99.0901 18.816C100.226 19.008 100.61 19.136 100.61 19.648C100.61 20.272 100.018 20.544 99.1701 20.544C98.2421 20.544 97.5221 20.192 97.3781 19.36H95.3781C95.5221 21.44 97.3621 22.176 99.0741 22.176C100.914 22.176 102.562 21.296 102.562 19.44C102.562 17.52 100.77 17.312 99.2981 17.088ZM108.327 13.616C106.935 13.616 106.295 14.192 105.831 14.976V10.624H103.847V22H105.831V17.552C105.831 16.208 106.455 15.392 107.639 15.392C108.615 15.392 109.175 15.936 109.175 16.864V22H111.159V16.688C111.159 14.72 110.199 13.616 108.327 13.616ZM116.508 13.616C114.46 13.616 113.004 14.544 112.684 16.464H114.572C114.748 15.84 115.1 15.248 116.332 15.248C117.036 15.248 117.692 15.472 117.692 16.096C117.692 16.784 117.052 16.912 116.732 16.96L115.068 17.2C114.316 17.312 112.444 17.664 112.444 19.728C112.444 21.472 113.788 22.176 115.1 22.176C115.98 22.176 117.052 21.856 117.692 20.8V22H119.628V16.288C119.628 14.352 118.316 13.616 116.508 13.616ZM115.612 20.528C114.908 20.528 114.428 20.224 114.428 19.568C114.428 18.656 115.404 18.512 115.756 18.464L116.588 18.336C117.004 18.272 117.34 18.224 117.644 18.096V18.544C117.644 19.648 116.812 20.528 115.612 20.528ZM126.129 13.664H125.585C124.625 13.664 123.857 14.08 123.441 14.976V13.76H121.473V22H123.457V17.968C123.457 16.352 124.209 15.6 125.601 15.6H126.129V13.664ZM134.125 18.48V17.664C134.125 14.944 132.429 13.616 130.429 13.616C128.333 13.616 126.461 15.056 126.461 17.936C126.461 20.8 128.301 22.176 130.381 22.176C132.061 22.176 133.645 21.264 134.061 19.52H132.205C131.917 20.176 131.245 20.464 130.461 20.464C129.277 20.464 128.429 19.824 128.381 18.48H134.125ZM130.413 15.328C131.485 15.328 132.173 15.936 132.173 17.024H128.429C128.605 15.824 129.469 15.328 130.413 15.328ZM141.012 17.312H146.02V15.36H141.012V12.752H146.452V10.8H138.932V22H141.012V17.312ZM147.223 12.672H149.335V10.416H147.223V12.672ZM147.287 22H149.271V13.76H147.287V22ZM153.132 10.624H151.148V22H153.132V10.624ZM163.903 13.616C162.415 13.616 161.791 14.384 161.471 14.976C161.087 14.112 160.271 13.616 159.167 13.616C157.919 13.616 157.263 14.32 157.007 14.976V13.76H155.055V22H157.039V17.36C157.039 16 157.679 15.408 158.607 15.408C159.439 15.408 159.935 15.856 159.935 16.832V22H161.919V17.376C161.919 15.984 162.559 15.408 163.503 15.408C164.351 15.408 164.815 15.856 164.815 16.832V22H166.799V16.448C166.799 14.672 165.679 13.616 163.903 13.616ZM172.154 13.616C169.754 13.616 168.074 15.216 168.074 17.888C168.074 20.576 169.754 22.176 172.154 22.176C174.57 22.176 176.25 20.576 176.25 17.888C176.25 15.216 174.57 13.616 172.154 13.616ZM172.138 15.456C173.338 15.456 174.218 16.24 174.218 17.888C174.218 19.44 173.466 20.336 172.186 20.336C170.986 20.336 170.106 19.552 170.106 17.888C170.106 16.352 170.858 15.456 172.138 15.456ZM182.259 13.664H181.715C180.755 13.664 179.987 14.08 179.571 14.976V13.76H177.603V22H179.587V17.968C179.587 16.352 180.339 15.6 181.731 15.6H182.259V13.664ZM186.655 13.616C184.607 13.616 183.151 14.544 182.831 16.464H184.719C184.895 15.84 185.247 15.248 186.479 15.248C187.183 15.248 187.839 15.472 187.839 16.096C187.839 16.784 187.199 16.912 186.879 16.96L185.215 17.2C184.463 17.312 182.591 17.664 182.591 19.728C182.591 21.472 183.935 22.176 185.247 22.176C186.127 22.176 187.199 21.856 187.839 20.8V22H189.775V16.288C189.775 14.352 188.463 13.616 186.655 13.616ZM185.759 20.528C185.055 20.528 184.575 20.224 184.575 19.568C184.575 18.656 185.551 18.512 185.903 18.464L186.735 18.336C187.151 18.272 187.487 18.224 187.791 18.096V18.544C187.791 19.648 186.959 20.528 185.759 20.528Z" fill="white"/>
<defs>
<filter id="filmora-header-white-filter0_i" x="0" y="0" width="32" height="32" filterUnits="userSpaceOnUse" color-interpolation-filters="sRGB">
<feFlood flood-opacity="0" result="BackgroundImageFix"/>
<feBlend mode="normal" in="SourceGraphic" in2="BackgroundImageFix" result="shape"/>
<feColorMatrix in="SourceAlpha" type="matrix" values="0 0 0 0 0 0 0 0 0 0 0 0 0 0 0 0 0 0 127 0" result="hardAlpha"/>
<feOffset/>
<feGaussianBlur stdDeviation="0.5"/>
<feComposite in2="hardAlpha" operator="arithmetic" k2="-1" k3="1"/>
<feColorMatrix type="matrix" values="0 0 0 0 0 0 0 0 0 0 0 0 0 0 0 0 0 0 0.24 0"/>
<feBlend mode="darken" in2="shape" result="effect1_innerShadow"/>
</filter>
<linearGradient id="filmora-header-white-paint0_linear" x1="16" y1="0" x2="16" y2="32" gradientUnits="userSpaceOnUse">
<stop stop-color="#203D51"/>
<stop offset="1" stop-color="#143247"/>
</linearGradient>
<clipPath id="filmora-header-white-clip0">
<rect width="32" height="32" rx="7.30097" fill="white"/>
</clipPath>
</defs>
</svg>
